<?xml version="1.0" encoding="UTF-8"?>
<svg xmlns="http://www.w3.org/2000/svg" width="1280" height="720" viewBox="0 0 1280 720">
  <title>TX10 Clock visual contract v0.1.0 — 10:09 PM, Sunday July 12, 42 seconds</title>
  <desc>Pure-black 1280 by 720 clock: analog face left, large digital time right.</desc>
  <rect width="1280" height="720" fill="#000000"/>
  <g id="composition">
    <defs>
      <line id="minorTick" x1="318" y1="93" x2="318" y2="107" stroke="#D1D1D6" stroke-width="3" stroke-linecap="round" opacity="0.72"/>
      <line id="majorTick" x1="318" y1="93" x2="318" y2="117" stroke="#F5F5F7" stroke-width="6" stroke-linecap="round"/>
    </defs>

    <g aria-label="minute ticks">
      <use href="#minorTick" transform="rotate(6 318 360)"/><use href="#minorTick" transform="rotate(12 318 360)"/><use href="#minorTick" transform="rotate(18 318 360)"/><use href="#minorTick" transform="rotate(24 318 360)"/>
      <use href="#minorTick" transform="rotate(36 318 360)"/><use href="#minorTick" transform="rotate(42 318 360)"/><use href="#minorTick" transform="rotate(48 318 360)"/><use href="#minorTick" transform="rotate(54 318 360)"/>
      <use href="#minorTick" transform="rotate(66 318 360)"/><use href="#minorTick" transform="rotate(72 318 360)"/><use href="#minorTick" transform="rotate(78 318 360)"/><use href="#minorTick" transform="rotate(84 318 360)"/>
      <use href="#minorTick" transform="rotate(96 318 360)"/><use href="#minorTick" transform="rotate(102 318 360)"/><use href="#minorTick" transform="rotate(108 318 360)"/><use href="#minorTick" transform="rotate(114 318 360)"/>
      <use href="#minorTick" transform="rotate(126 318 360)"/><use href="#minorTick" transform="rotate(132 318 360)"/><use href="#minorTick" transform="rotate(138 318 360)"/><use href="#minorTick" transform="rotate(144 318 360)"/>
      <use href="#minorTick" transform="rotate(156 318 360)"/><use href="#minorTick" transform="rotate(162 318 360)"/><use href="#minorTick" transform="rotate(168 318 360)"/><use href="#minorTick" transform="rotate(174 318 360)"/>
      <use href="#minorTick" transform="rotate(186 318 360)"/><use href="#minorTick" transform="rotate(192 318 360)"/><use href="#minorTick" transform="rotate(198 318 360)"/><use href="#minorTick" transform="rotate(204 318 360)"/>
      <use href="#minorTick" transform="rotate(216 318 360)"/><use href="#minorTick" transform="rotate(222 318 360)"/><use href="#minorTick" transform="rotate(228 318 360)"/><use href="#minorTick" transform="rotate(234 318 360)"/>
      <use href="#minorTick" transform="rotate(246 318 360)"/><use href="#minorTick" transform="rotate(252 318 360)"/><use href="#minorTick" transform="rotate(258 318 360)"/><use href="#minorTick" transform="rotate(264 318 360)"/>
      <use href="#minorTick" transform="rotate(276 318 360)"/><use href="#minorTick" transform="rotate(282 318 360)"/><use href="#minorTick" transform="rotate(288 318 360)"/><use href="#minorTick" transform="rotate(294 318 360)"/>
      <use href="#minorTick" transform="rotate(306 318 360)"/><use href="#minorTick" transform="rotate(312 318 360)"/><use href="#minorTick" transform="rotate(318 318 360)"/><use href="#minorTick" transform="rotate(324 318 360)"/>
      <use href="#minorTick" transform="rotate(336 318 360)"/><use href="#minorTick" transform="rotate(342 318 360)"/><use href="#minorTick" transform="rotate(348 318 360)"/><use href="#minorTick" transform="rotate(354 318 360)"/>
    </g>
    <g aria-label="hour ticks">
      <use href="#majorTick"/><use href="#majorTick" transform="rotate(30 318 360)"/><use href="#majorTick" transform="rotate(60 318 360)"/><use href="#majorTick" transform="rotate(90 318 360)"/>
      <use href="#majorTick" transform="rotate(120 318 360)"/><use href="#majorTick" transform="rotate(150 318 360)"/><use href="#majorTick" transform="rotate(180 318 360)"/><use href="#majorTick" transform="rotate(210 318 360)"/>
      <use href="#majorTick" transform="rotate(240 318 360)"/><use href="#majorTick" transform="rotate(270 318 360)"/><use href="#majorTick" transform="rotate(300 318 360)"/><use href="#majorTick" transform="rotate(330 318 360)"/>
    </g>

    <g fill="#F5F5F7" font-family="Arial, Helvetica, sans-serif" font-size="48" font-weight="500" text-anchor="middle" dominant-baseline="middle">
      <text x="318" y="149">12</text><text x="426" y="178">1</text><text x="505" y="257">2</text><text x="534" y="360">3</text>
      <text x="505" y="468">4</text><text x="426" y="547">5</text><text x="318" y="576">6</text><text x="210" y="547">7</text>
      <text x="131" y="468">8</text><text x="102" y="360">9</text><text x="131" y="252">10</text><text x="210" y="178">11</text>
    </g>

    <g stroke="#F5F5F7" stroke-linecap="round" fill="none">
      <line x1="318" y1="379" x2="318" y2="244" stroke-width="18" transform="rotate(304.85 318 360)"/>
      <line x1="318" y1="384" x2="318" y2="180" stroke-width="13" transform="rotate(58.2 318 360)"/>
    </g>
    <line x1="318" y1="390" x2="318" y2="144" stroke="#FF9F0A" stroke-width="4" stroke-linecap="round" transform="rotate(252 318 360)"/>
    <circle cx="318" cy="360" r="11" fill="#FF9F0A"/>
    <circle cx="318" cy="360" r="4" fill="#000000"/>

    <g font-family="Arial, Helvetica, sans-serif" text-anchor="middle">
      <text x="941" y="377" fill="#F5F5F7" font-size="190" font-weight="300" letter-spacing="-7" textLength="535" lengthAdjust="spacingAndGlyphs">10:09</text>
      <text x="941" y="447" fill="#A1A1A6" font-size="38" font-weight="600" letter-spacing="2" textLength="535" lengthAdjust="spacingAndGlyphs" xml:space="preserve"><tspan>PM SUN, JUL 12&#160;</tspan><tspan fill="#FF9F0A">42</tspan></text>
    </g>
  </g>
</svg>
